# xmcd
#
# Track frame offsets:
#	150
#	16357
#	48792
#	60448
#	79375
#	101765
#	114567
#	126545
#	146283
#	158917
#	173752
#	187936
#
# Disc length: 2699 seconds
# Revision: 0
# Processed by: cddbd v1.5.2PL0 Copyright (c) Steve Scherf et al.
# Submitted via: dBpowerAMP V12.0
#
DISCID=9a0a890c
DTITLE=Various Artist - Dusted Old Tracks
DYEAR=2015
DGENRE=Country
TTITLE0=Alice Benfer - Those Singing Cowboys
TTITLE1=Alice Benfer - The Ringer And The Princess
TTITLE2=Alice Benfer - Flowers For Mama
TTITLE3=Alice Benfer and Zeta Burns - Ballad Of Patsy Montana
TTITLE4=Alice Benfer - Jast An Old Cattle Dog
TTITLE5=Alice Benfer - Just A Closer Walk With Thee
TTITLE6=Alice Benfer and Zeta Burns - Yodelling Waltz
TTITLE7=Alice Benfer - Six White Bloomers
TTITLE8=Alice Benfer - My Mother's Old Red Shawl
TTITLE9=Alice Benfer - Joe The Crow
TTITLE10=Alice Benfer - A Soldier's Last Letter
TTITLE11=Alice Benfer and Zeta Burns - Will There Be Any Yodellers In Heaven?
EXTD=
EXTT0=
EXTT1=
EXTT2=
EXTT3=
EXTT4=
EXTT5=
EXTT6=
EXTT7=
EXTT8=
EXTT9=
EXTT10=
EXTT11=
PLAYORDER=
